<mxfile host="app.diagrams.net" modified="2025-01-09T00:00:00.000Z" agent="Mozilla/5.0" version="21.7.5" type="device">
  <diagram id="OTA_MQTT" name="OTA &amp; MQTT Flows">
    <mxGraphModel dx="1254" dy="720" grid="1" gridSize="10" guides="1" tooltips="1" connect="1" arrows="1" fold="1" page="1" pageScale="1" pageWidth="827" pageHeight="1169" math="0" shadow="0">
      <root>
        <mxCell id="0" />
        <mxCell id="1" parent="0" />
        <mxCell id="2" value="ESP32 Device" style="rounded=1;whiteSpace=wrap;html=1;fillColor=#d5e8d4;strokeColor=#82b366;fontStyle=1;" vertex="1" parent="1">
          <mxGeometry x="60" y="120" width="140" height="60" as="geometry" />
        </mxCell>
        <mxCell id="3" value="HTTP OTA\nDiscovery API" style="rounded=1;whiteSpace=wrap;html=1;fillColor=#dae8fc;strokeColor=#6c8ebf;fontStyle=1;" vertex="1" parent="1">
          <mxGeometry x="260" y="40" width="170" height="60" as="geometry" />
        </mxCell>
        <mxCell id="4" value="Firmware &amp; Config\nStorage" style="rounded=1;whiteSpace=wrap;html=1;fillColor=#ffe6cc;strokeColor=#d79b00;" vertex="1" parent="1">
          <mxGeometry x="480" y="40" width="170" height="60" as="geometry" />
        </mxCell>
        <mxCell id="5" value="WebSocket\nEndpoint URL" style="rounded=1;whiteSpace=wrap;html=1;fillColor=#dae8fc;strokeColor=#6c8ebf;" vertex="1" parent="1">
          <mxGeometry x="260" y="120" width="170" height="60" as="geometry" />
        </mxCell>
        <mxCell id="6" value="Device Boot / Version Check" style="text;whiteSpace=wrap;html=1;fontSize=12;fontColor=#666666;" vertex="1" parent="1">
          <mxGeometry x="40" y="60" width="180" height="40" as="geometry" />
        </mxCell>
        <mxCell id="7" style="edgeStyle=orthogonalEdgeStyle;rounded=0;orthogonalLoop=1;jettySize=auto;html=1;strokeColor=#6c8ebf;endArrow=block;endFill=1;" edge="1" source="2" target="3" parent="1">
          <mxGeometry relative="1" as="geometry" />
        </mxCell>
        <mxCell id="8" value="HTTP POST /ota/\ncurrent firmware info" style="text;whiteSpace=wrap;html=1;fontSize=11;fontColor=#274e13;" vertex="1" parent="1">
          <mxGeometry x="180" y="0" width="200" height="40" as="geometry" />
        </mxCell>
        <mxCell id="9" style="edgeStyle=orthogonalEdgeStyle;rounded=0;orthogonalLoop=1;jettySize=auto;html=1;strokeColor=#6c8ebf;endArrow=block;endFill=1;" edge="1" source="3" target="4" parent="1">
          <mxGeometry relative="1" as="geometry" />
        </mxCell>
        <mxCell id="10" value="Publish OTA manifest, version map" style="text;whiteSpace=wrap;html=1;fontSize=11;fontColor=#274e13;" vertex="1" parent="1">
          <mxGeometry x="420" y="0" width="200" height="40" as="geometry" />
        </mxCell>
        <mxCell id="11" style="edgeStyle=orthogonalEdgeStyle;rounded=0;orthogonalLoop=1;jettySize=auto;html=1;strokeColor=#6c8ebf;endArrow=block;endFill=1;exitX=0.5;exitY=1;exitPerimeter=1;entryX=1;entryY=0.5;entryPerimeter=1;" edge="1" source="3" target="5" parent="1">
          <mxGeometry relative="1" as="geometry" />
        </mxCell>
        <mxCell id="12" value="Return latest version, download URL, WS endpoint" style="text;whiteSpace=wrap;html=1;fontSize=11;fontColor=#274e13;" vertex="1" parent="1">
          <mxGeometry x="240" y="100" width="220" height="40" as="geometry" />
        </mxCell>
        <mxCell id="13" value="OTA Flow (on demand)" style="text;whiteSpace=wrap;html=1;fontSize=14;fontStyle=1;fontColor=#1a1a1a;" vertex="1" parent="1">
          <mxGeometry x="60" y="10" width="220" height="30" as="geometry" />
        </mxCell>
        <mxCell id="14" value="MQTT Flow (event-driven)" style="text;whiteSpace=wrap;html=1;fontSize=14;fontStyle=1;fontColor=#1a1a1a;" vertex="1" parent="1">
          <mxGeometry x="60" y="230" width="240" height="30" as="geometry" />
        </mxCell>
        <mxCell id="15" value="MQTT Broker" style="rounded=1;whiteSpace=wrap;html=1;fillColor=#f8cecc;strokeColor=#b85450;fontStyle=1;" vertex="1" parent="1">
          <mxGeometry x="260" y="300" width="170" height="60" as="geometry" />
        </mxCell>
        <mxCell id="16" value="Server Services\n(Orchestration / Rules)" style="rounded=1;whiteSpace=wrap;html=1;fillColor=#e1d5e7;strokeColor=#9673a6;" vertex="1" parent="1">
          <mxGeometry x="480" y="300" width="190" height="60" as="geometry" />
        </mxCell>
        <mxCell id="17" value="Telemetry / Events\nHeartbeat QoS" style="text;whiteSpace=wrap;html=1;fontSize=11;fontColor=#274e13;" vertex="1" parent="1">
          <mxGeometry x="220" y="260" width="200" height="40" as="geometry" />
        </mxCell>
        <mxCell id="18" style="edgeStyle=orthogonalEdgeStyle;rounded=0;orthogonalLoop=1;jettySize=auto;html=1;strokeColor=#b85450;endArrow=block;endFill=1;" edge="1" source="2" target="15" parent="1">
          <mxGeometry relative="1" as="geometry" />
        </mxCell>
        <mxCell id="19" style="edgeStyle=orthogonalEdgeStyle;rounded=0;orthogonalLoop=1;jettySize=auto;html=1;strokeColor=#b85450;endArrow=block;endFill=1;" edge="1" source="15" target="2" parent="1">
          <mxGeometry relative="1" as="geometry" />
        </mxCell>
        <mxCell id="20" value="QoS 0/1 commands\nDownlink" style="text;whiteSpace=wrap;html=1;fontSize=11;fontColor=#b85450;" vertex="1" parent="1">
          <mxGeometry x="120" y="320" width="140" height="40" as="geometry" />
        </mxCell>
        <mxCell id="21" style="edgeStyle=orthogonalEdgeStyle;rounded=0;orthogonalLoop=1;jettySize=auto;html=1;strokeColor=#9673a6;endArrow=block;endFill=1;" edge="1" source="15" target="16" parent="1">
          <mxGeometry relative="1" as="geometry" />
        </mxCell>
        <mxCell id="22" value="Bridge to REST / WebSocket / DB" style="text;whiteSpace=wrap;html=1;fontSize=11;fontColor=#3f3f3f;" vertex="1" parent="1">
          <mxGeometry x="470" y="260" width="210" height="40" as="geometry" />
        </mxCell>
        <mxCell id="23" style="edgeStyle=orthogonalEdgeStyle;rounded=0;orthogonalLoop=1;jettySize=auto;html=1;strokeColor=#9673a6;endArrow=block;endFill=1;" edge="1" source="16" target="15" parent="1">
          <mxGeometry relative="1" as="geometry" />
        </mxCell>
        <mxCell id="24" value="Rule engine pushes broadcast / multi-device control" style="text;whiteSpace=wrap;html=1;fontSize=11;fontColor=#3f3f3f;" vertex="1" parent="1">
          <mxGeometry x="460" y="360" width="230" height="40" as="geometry" />
        </mxCell>
        <mxCell id="25" value="Optional UDP Gateway" style="rounded=1;whiteSpace=wrap;html=1;fillColor=#fff2cc;strokeColor=#d6b656;" vertex="1" parent="1">
          <mxGeometry x="260" y="400" width="170" height="60" as="geometry" />
        </mxCell>
        <mxCell id="26" value="Low-latency wake word, local broadcast to MQTT" style="text;whiteSpace=wrap;html=1;fontSize=11;fontColor=#996515;" vertex="1" parent="1">
          <mxGeometry x="220" y="460" width="240" height="40" as="geometry" />
        </mxCell>
        <mxCell id="27" style="edgeStyle=orthogonalEdgeStyle;rounded=0;orthogonalLoop=1;jettySize=auto;html=1;strokeColor=#d6b656;endArrow=block;endFill=1;" edge="1" source="25" target="15" parent="1">
          <mxGeometry relative="1" as="geometry" />
        </mxCell>
        <mxCell id="28" style="edgeStyle=orthogonalEdgeStyle;rounded=0;orthogonalLoop=1;jettySize=auto;html=1;strokeColor=#d6b656;endArrow=block;endFill=1;" edge="1" source="15" target="25" parent="1">
          <mxGeometry relative="1" as="geometry" />
        </mxCell>
        <mxCell id="29" value="UDP assists gateway to push events to broker" style="text;whiteSpace=wrap;html=1;fontSize=11;fontColor=#996515;" vertex="1" parent="1">
          <mxGeometry x="430" y="420" width="210" height="40" as="geometry" />
        </mxCell>
      </root>
    </mxGraphModel>
  </diagram>
</mxfile>
